<svg width="17" height="16" viewBox="0 0 17 16" fill="none" xmlns="http://www.w3.org/2000/svg">
<path d="M14.0375 14.9076H2.94582C1.95245 14.9076 1.14423 14.1469 1.14423 13.212V2.77277C1.14423 1.83783 1.95245 1.07715 2.94582 1.07715H14.0375C15.0309 1.07715 15.8391 1.83783 15.8391 2.77277V13.212C15.8391 14.1469 15.0309 14.9076 14.0375 14.9076ZM2.94582 1.99918C2.49257 1.99918 2.12388 2.34617 2.12388 2.77277V13.212C2.12388 13.6384 2.49257 13.9856 2.94582 13.9856H14.0375C14.4906 13.9856 14.8595 13.6384 14.8595 13.212V2.77277C14.8595 2.34617 14.4906 1.99918 14.0375 1.99918H2.94582Z" fill="black"/>
<path d="M6.23682 6.70459H4.54364V11.828H6.23682V6.70459Z" fill="black"/>
<path d="M5.3902 6.00406C4.84813 6.00406 4.40973 5.59037 4.40973 5.08095C4.40973 4.57107 4.84813 4.15723 5.3902 4.15723C5.93113 4.15723 6.37068 4.57091 6.37068 5.08095C6.37068 5.59037 5.93097 6.00406 5.3902 6.00406Z" fill="black"/>
<path d="M12.5736 11.8273H10.8826V9.33586C10.8826 8.74161 10.8716 7.9774 10.0033 7.9774C9.12291 7.9774 8.98854 8.62513 8.98854 9.29314V11.8273H7.29749V6.70408H8.92029V7.40467H8.94331C9.16912 7.00174 9.72116 6.57715 10.5441 6.57715C12.2573 6.57715 12.5736 7.63794 12.5736 9.01746V11.8273Z" fill="black"/>
</svg>
