<svg width="17" height="16" viewBox="0 0 17 16" fill="none" xmlns="http://www.w3.org/2000/svg">
<path fill-rule="evenodd" clip-rule="evenodd" d="M2.125 5.33333C2.125 3.49238 3.71065 2 5.66666 2H11.3334C13.2893 2 14.875 3.49238 14.875 5.33333V10.6667C14.875 12.5076 13.2893 14 11.3334 14H5.66666C3.71065 14 2.125 12.5076 2.125 10.6667V5.33333ZM5.66666 3.33333C4.49306 3.33333 3.54166 4.22876 3.54166 5.33333V10.6667C3.54166 11.7712 4.49306 12.6667 5.66666 12.6667H11.3334C12.5069 12.6667 13.4584 11.7712 13.4584 10.6667V5.33333C13.4584 4.22876 12.5069 3.33333 11.3334 3.33333H5.66666Z" fill="black"/>
<path fill-rule="evenodd" clip-rule="evenodd" d="M11.6875 5.66635C12.0787 5.66635 12.3959 5.36787 12.3959 4.99968C12.3959 4.63149 12.0787 4.33301 11.6875 4.33301C11.2963 4.33301 10.9792 4.63149 10.9792 4.99968C10.9792 5.36787 11.2963 5.66635 11.6875 5.66635ZM7.08336 7.99968C7.08336 7.2633 7.71762 6.66635 8.50002 6.66635C9.28243 6.66635 9.91669 7.2633 9.91669 7.99968C9.91669 8.73606 9.28243 9.33301 8.50002 9.33301C7.71762 9.33301 7.08336 8.73606 7.08336 7.99968ZM8.50002 5.33301C6.93522 5.33301 5.66669 6.52692 5.66669 7.99968C5.66669 9.47244 6.93522 10.6664 8.50002 10.6664C10.0648 10.6664 11.3334 9.47244 11.3334 7.99968C11.3334 6.52692 10.0648 5.33301 8.50002 5.33301Z" fill="black"/>
</svg>
