<svg width="17" height="16" viewBox="0 0 17 16" fill="none" xmlns="http://www.w3.org/2000/svg">
<path d="M9.20834 14.634C8.97536 14.6558 8.73906 14.6669 8.5 14.6669C8.26094 14.6669 8.02464 14.6558 7.79166 14.634V9.33366H7.08334C6.69213 9.33366 6.375 9.03518 6.375 8.66699C6.375 8.2988 6.69213 8.00032 7.08334 8.00032H7.79166V6.66699C7.79166 5.56242 8.74306 4.66699 9.91666 4.66699H10.625C11.0162 4.66699 11.3334 4.96546 11.3334 5.33365C11.3334 5.70184 11.0162 6.00032 10.625 6.00032H9.91666C9.52546 6.00032 9.20834 6.2988 9.20834 6.66699V8.00032H10.625C11.0162 8.00032 11.3334 8.2988 11.3334 8.66699C11.3334 9.03518 11.0162 9.33366 10.625 9.33366H9.20834V14.634Z" fill="black"/>
<path fill-rule="evenodd" clip-rule="evenodd" d="M8.50001 13.3331C11.6296 13.3331 14.1666 10.9452 14.1666 7.99968C14.1666 5.05416 11.6296 2.66635 8.50001 2.66635C5.3704 2.66635 2.83335 5.05416 2.83335 7.99968C2.83335 10.9452 5.3704 13.3331 8.50001 13.3331ZM8.50001 14.6664C12.412 14.6664 15.5834 11.6816 15.5834 7.99968C15.5834 4.31778 12.412 1.33301 8.50001 1.33301C4.58799 1.33301 1.41669 4.31778 1.41669 7.99968C1.41669 11.6816 4.58799 14.6664 8.50001 14.6664Z" fill="black"/>
</svg>
