<svg width="17" height="16" viewBox="0 0 17 16" fill="none" xmlns="http://www.w3.org/2000/svg">
<path fill-rule="evenodd" clip-rule="evenodd" d="M1.62827 9.29935C1.88639 8.90626 2.34237 8.66699 2.83335 8.66699C2.96415 8.66699 3.11999 8.66683 3.29289 8.66305C3.15299 8.44614 3.0325 8.21709 2.93214 7.97757C2.43468 6.79038 2.46853 5.44387 2.90005 4.16748C3.08286 3.62673 3.6093 3.25412 4.21201 3.2389C4.81473 3.22367 5.36164 3.56915 5.57501 4.09989C5.81318 4.69232 6.10268 4.92598 6.43086 5.06663C6.64016 5.15633 6.90239 5.22329 7.24156 5.26772C7.71098 3.74041 9.17627 2.66699 10.9792 2.66699C11.5097 2.66699 12.0136 2.7845 12.4289 2.9405C12.5984 3.00413 12.77 3.08054 12.936 3.16937L13.9419 3.01721C14.4457 2.94101 14.9541 3.12567 15.2728 3.50064C15.5916 3.87562 15.6716 4.38296 15.482 4.82884L14.8722 6.26372C14.8232 8.53791 14.1346 10.3328 12.8221 11.5681C11.4623 12.8479 9.63809 13.3336 7.79169 13.3336C6.58534 13.3336 5.33863 13.1462 4.25514 12.7383C3.18887 12.3368 2.1323 11.6621 1.56625 10.5966C1.34667 10.1832 1.37014 9.69244 1.62827 9.29935ZM13.4584 6.00032L14.1667 4.33365L12.5926 4.57175C12.5802 4.56055 12.5674 4.54935 12.554 4.53816C12.2254 4.26407 11.5841 4.00032 10.9792 4.00032C9.56253 4.00032 8.50003 5.00032 8.50003 6.33365V6.66699C7.98643 6.66699 7.5142 6.64752 7.08335 6.59311C6.42665 6.51018 5.86609 6.34609 5.40165 6.04607C4.91009 5.72854 4.52621 5.25874 4.25003 4.57175C3.99989 5.31163 3.92642 6.03963 4.02959 6.70124C4.13637 7.3859 4.43232 7.99946 4.91744 8.4815C5.29108 8.85277 5.77695 9.14602 6.37503 9.33366C5.87461 9.64764 5.21708 9.81374 4.58743 9.90162C4.56062 9.90536 4.53385 9.90896 4.50715 9.91242C3.82964 10.0003 3.19388 10.0003 2.83335 10.0003C3.11659 10.5334 3.62631 10.96 4.27196 11.2799C5.24104 11.7602 6.51637 12.0003 7.79169 12.0003C10.9792 12.0003 13.4584 10.3336 13.4584 6.00032Z" fill="black"/>
</svg>
