<svg width="17" height="16" viewBox="0 0 17 16" fill="none" xmlns="http://www.w3.org/2000/svg">
<path d="M1.32525 7.84472L4.75275 9.04867L6.07941 13.0643C6.16432 13.3213 6.49846 13.4164 6.72016 13.2457L8.63077 11.7799C8.83099 11.6262 9.1163 11.6187 9.3255 11.7616L12.7716 14.1163C13.0087 14.2785 13.3449 14.1562 13.4044 13.8864L15.9288 2.45821C15.9937 2.16346 15.6861 1.91759 15.3879 2.02617L1.32127 7.13348C0.974101 7.25939 0.977077 7.72196 1.32525 7.84472ZM5.8656 8.40783L12.5642 4.52487C12.6846 4.45531 12.8084 4.60851 12.7049 4.69878L7.17676 9.53524C6.98239 9.70542 6.85707 9.93333 6.82156 10.1807L6.63333 11.4941C6.60825 11.6695 6.34664 11.6868 6.29512 11.5171L5.57088 9.12196C5.488 8.8488 5.60884 8.55694 5.8656 8.40783Z" fill="black"/>
</svg>
